<svg width="306" height="306" viewBox="0 0 306 306" fill="none" xmlns="http://www.w3.org/2000/svg">
<path d="M178 128L286.334 19.6667L178 128ZM286.334 19.6667L119.667 44.6667L286.334 19.6667ZM119.667 44.6667L178 128L119.667 44.6667ZM19.667 19.6667L119.667 44.6667L19.667 19.6667ZM119.667 44.6667L19.667 286.333L119.667 44.6667ZM19.667 286.333L178 128L19.667 286.333ZM286.334 286.333L178 128L286.334 286.333ZM19.667 19.6667V286.333H286.334V19.6667H19.667Z" stroke="black" stroke-width="10"/>
<path d="M19.667 19.6667V286.333H286.334V19.6667H19.667Z" stroke="black" stroke-width="5"/>
<path d="M36.3333 19.6667C36.3333 24.0869 34.5774 28.3262 31.4518 31.4518C28.3262 34.5774 24.0869 36.3333 19.6667 36.3333C15.2464 36.3333 11.0072 34.5774 7.88155 31.4518C4.75595 28.3262 3 24.0869 3 19.6667C3 15.2464 4.75595 11.0072 7.88155 7.88155C11.0072 4.75595 15.2464 3 19.6667 3C24.0869 3 28.3262 4.75595 31.4518 7.88155C34.5774 11.0072 36.3333 15.2464 36.3333 19.6667V19.6667ZM303 286.333C303 290.754 301.244 294.993 298.118 298.118C294.993 301.244 290.754 303 286.333 303C281.913 303 277.674 301.244 274.548 298.118C271.423 294.993 269.667 290.754 269.667 286.333C269.667 281.913 271.423 277.674 274.548 274.548C277.674 271.423 281.913 269.667 286.333 269.667C290.754 269.667 294.993 271.423 298.118 274.548C301.244 277.674 303 281.913 303 286.333V286.333ZM36.3333 286.333C36.3333 290.754 34.5774 294.993 31.4518 298.118C28.3262 301.244 24.0869 303 19.6667 303C15.2464 303 11.0072 301.244 7.88155 298.118C4.75595 294.993 3 290.754 3 286.333C3 281.913 4.75595 277.674 7.88155 274.548C11.0072 271.423 15.2464 269.667 19.6667 269.667C24.0869 269.667 28.3262 271.423 31.4518 274.548C34.5774 277.674 36.3333 281.913 36.3333 286.333V286.333ZM303 19.6667C303 24.0869 301.244 28.3262 298.118 31.4518C294.993 34.5774 290.754 36.3333 286.333 36.3333C281.913 36.3333 277.674 34.5774 274.548 31.4518C271.423 28.3262 269.667 24.0869 269.667 19.6667C269.667 15.2464 271.423 11.0072 274.548 7.88155C277.674 4.75595 281.913 3 286.333 3C290.754 3 294.993 4.75595 298.118 7.88155C301.244 11.0072 303 15.2464 303 19.6667V19.6667ZM136.333 44.6667C136.333 49.0869 134.577 53.3262 131.452 56.4518C128.326 59.5774 124.087 61.3333 119.667 61.3333C115.246 61.3333 111.007 59.5774 107.882 56.4518C104.756 53.3262 103 49.0869 103 44.6667C103 40.2464 104.756 36.0072 107.882 32.8816C111.007 29.7559 115.246 28 119.667 28C124.087 28 128.326 29.7559 131.452 32.8816C134.577 36.0072 136.333 40.2464 136.333 44.6667V44.6667ZM194.667 128C194.667 132.42 192.911 136.659 189.785 139.785C186.659 142.911 182.42 144.667 178 144.667C173.58 144.667 169.34 142.911 166.215 139.785C163.089 136.659 161.333 132.42 161.333 128C161.333 123.58 163.089 119.34 166.215 116.215C169.34 113.089 173.58 111.333 178 111.333C182.42 111.333 186.659 113.089 189.785 116.215C192.911 119.34 194.667 123.58 194.667 128Z" fill="black" stroke="black" stroke-width="5"/>
</svg>
